<?xml version="1.0" encoding="UTF-8" standalone="no"?>
<!DOCTYPE svg PUBLIC "-//W3C//DTD SVG 1.1//EN" "http://www.w3.org/Graphics/SVG/1.1/DTD/svg11.dtd">
<svg version="1.1" xmlns="http://www.w3.org/2000/svg" xmlns:xlink="http://www.w3.org/1999/xlink" preserveAspectRatio="xMidYMid meet" viewBox="0 0 201 171" width="201" height="171"><defs><path d="M169.19 147.59L170.46 147.97L171.66 148.48L172.8 149.11L173.85 149.86L174.81 150.72L175.67 151.68L176.42 152.73L177.05 153.87L177.56 155.07L177.94 156.34L178.17 157.66L178.25 159.03L178.17 160.4L177.94 161.73L177.56 162.99L177.05 164.2L176.42 165.33L175.67 166.38L174.81 167.34L173.85 168.2L172.8 168.95L171.66 169.59L170.46 170.1L169.19 170.47L167.87 170.7L166.5 170.78L165.13 170.7L163.8 170.47L162.54 170.1L161.33 169.59L160.2 168.95L159.15 168.2L158.19 167.34L157.33 166.38L156.58 165.33L155.94 164.2L155.43 162.99L155.06 161.73L154.83 160.4L154.75 159.03L154.83 157.66L155.06 156.34L155.43 155.07L155.94 153.87L156.58 152.73L157.33 151.68L158.19 150.72L159.15 149.86L160.2 149.11L161.33 148.48L162.54 147.97L163.8 147.59L165.13 147.36L166.5 147.28L167.87 147.36L169.19 147.59ZM83.38 147.59L84.65 147.97L85.86 148.48L86.99 149.11L88.04 149.86L89 150.72L89.86 151.68L90.61 152.73L91.25 153.87L91.76 155.07L92.13 156.34L92.36 157.66L92.44 159.03L92.36 160.4L92.13 161.73L91.76 162.99L91.25 164.2L90.61 165.33L89.86 166.38L89 167.34L88.04 168.2L86.99 168.95L85.86 169.59L84.65 170.1L83.38 170.47L82.06 170.7L80.69 170.78L79.32 170.7L78 170.47L76.73 170.1L75.53 169.59L74.39 168.95L73.34 168.2L72.38 167.34L71.52 166.38L70.77 165.33L70.14 164.2L69.63 162.99L69.25 161.73L69.02 160.4L68.94 159.03L69.02 157.66L69.25 156.34L69.63 155.07L70.14 153.87L70.77 152.73L71.52 151.68L72.38 150.72L73.34 149.86L74.39 149.11L75.53 148.48L76.73 147.97L78 147.59L79.32 147.36L80.69 147.28L82.06 147.36L83.38 147.59ZM201.6 35.51L201.6 89.83L64.76 129.52L27.16 21.94L0 21.94L0 0L43.87 0L64.76 35.51L201.6 35.51Z" id="a5KiWxFH77"></path></defs><g><g><g><use xlink:href="#a5KiWxFH77" opacity="1" fill="#ffffff" fill-opacity="1"></use></g></g></g></svg>
