<?xml version="1.0" encoding="UTF-8" standalone="no"?>
<!DOCTYPE svg PUBLIC "-//W3C//DTD SVG 1.1//EN" "http://www.w3.org/Graphics/SVG/1.1/DTD/svg11.dtd">
<svg version="1.1" xmlns="http://www.w3.org/2000/svg" xmlns:xlink="http://www.w3.org/1999/xlink" preserveAspectRatio="xMidYMid meet" viewBox="0 0 192 260" width="192" height="260"><defs><path d="M174.63 28.35L192.27 42.96L192.27 168.45L155.02 223.45L143.8 223.45L175.51 260.71L150.02 260.71L114.35 223.45L67.16 223.45L31.49 260.71L6 260.71L37.71 223.45L27.57 223.45L1 168.45L1 42.96L12.86 28.35L58.94 20.51L70.71 0.9L123.65 0.9L135.41 20.51L174.63 28.35ZM23.65 168.55L56 168.55L56 149.92L23.65 149.92L23.65 168.55ZM136.39 168.55L170.71 168.55L170.71 149.92L136.39 149.92L136.39 168.55ZM23.65 112.18L170.71 112.18L170.71 56.78L23.65 56.78L23.65 112.18ZM79.53 34.24L114.82 34.24L114.82 19.53L79.53 19.53L79.53 34.24Z" id="h2fm4zxSdG"></path></defs><g><g><g><use xlink:href="#h2fm4zxSdG" opacity="1" fill="#ffffff" fill-opacity="1"></use></g></g></g></svg>